<svg width="10" height="11" viewBox="0 0 10 11" fill="none" xmlns="http://www.w3.org/2000/svg">
<path d="M1 2.8667H1.93333H9.4" stroke="#3D3D3D" stroke-width="0.933333" stroke-linecap="round" stroke-linejoin="round"/>
<path d="M3.33311 2.86667V1.93333C3.33311 1.6858 3.43144 1.4484 3.60647 1.27337C3.78151 1.09833 4.0189 1 4.26644 1H6.13311C6.38064 1 6.61804 1.09833 6.79307 1.27337C6.96811 1.4484 7.06644 1.6858 7.06644 1.93333V2.86667M8.46644 2.86667V9.4C8.46644 9.64753 8.36811 9.88493 8.19307 10.06C8.01804 10.235 7.78064 10.3333 7.53311 10.3333H2.86644C2.6189 10.3333 2.38151 10.235 2.20647 10.06C2.03144 9.88493 1.93311 9.64753 1.93311 9.4V2.86667H8.46644Z" stroke="#3D3D3D" stroke-width="0.933333" stroke-linecap="round" stroke-linejoin="round"/>
</svg>
