<svg width="54" height="40" viewBox="0 0 54 40" fill="none" xmlns="http://www.w3.org/2000/svg">
<path d="M5.96825 0H48.0317C52 0 54 1.96667 54 5.96667V34.0333C54 38 52 40 48.0317 40H5.96825C2 40 0 38 0 34.0333V5.96667C0 1.96667 2 0 5.96825 0ZM26.9841 28.6667L48.381 10.2333C49.1429 9.56667 49.746 8.03333 48.7937 6.66667C47.873 5.3 46.1905 5.26667 45.0794 6.1L26.9841 18.9667L8.92064 6.1C7.80952 5.26667 6.12698 5.3 5.20635 6.66667C4.25397 8.03333 4.85714 9.56667 5.61905 10.2333L26.9841 28.6667Z" fill="#ED1260"/>
</svg>
