<svg width="18" height="14" viewBox="0 0 18 14" fill="none" xmlns="http://www.w3.org/2000/svg">
<path d="M2.06348 0.399902H15.976C17.2885 0.399902 17.95 1.0489 17.95 2.3689V11.6309C17.95 12.9399 17.2885 13.5999 15.976 13.5999H2.06348C0.750977 13.5999 0.0894775 12.9399 0.0894775 11.6309V2.3689C0.0894775 1.0489 0.750977 0.399902 2.06348 0.399902ZM9.01448 9.8599L16.0915 3.7769C16.3435 3.5569 16.543 3.0509 16.228 2.5999C15.9235 2.1489 15.367 2.1379 14.9995 2.4129L9.01448 6.6589L3.03998 2.4129C2.67248 2.1379 2.11598 2.1489 1.81148 2.5999C1.49648 3.0509 1.69598 3.5569 1.94798 3.7769L9.01448 9.8599Z" fill="black" fill-opacity="0.4"/>
</svg>
