<svg width="19" height="19" viewBox="0 0 19 19" fill="none" xmlns="http://www.w3.org/2000/svg">
<path d="M14.6298 9.20879C16.7628 9.20879 18.492 8.20011 18.492 6.95583C18.492 5.71156 16.7628 4.70288 14.6298 4.70288C12.4967 4.70288 10.7676 5.71156 10.7676 6.95583C10.7676 8.20011 12.4967 9.20879 14.6298 9.20879Z" fill="black" fill-opacity="0.4"/>
<path fill-rule="evenodd" clip-rule="evenodd" d="M14.6876 10.5047C11.9253 10.5047 10.8254 9.316 10.8254 8.62744V11.5769C10.8254 12.8216 12.5547 13.8288 14.6876 13.8288C16.8228 13.8288 18.5521 12.8216 18.5521 11.5769V8.69824C18.5521 9.38794 17.4511 10.5047 14.6876 10.5047Z" fill="black" fill-opacity="0.4"/>
<path fill-rule="evenodd" clip-rule="evenodd" d="M14.6876 15.0621C12.2166 15.0621 10.8254 13.919 10.8254 13.2305V16.1526C10.8254 17.3972 12.5547 18.4055 14.6876 18.4055C16.8228 18.4055 18.5521 17.3972 18.5521 16.1526V13.1951C18.5521 13.8836 17.1598 15.0621 14.6876 15.0621Z" fill="black" fill-opacity="0.4"/>
<path d="M5.13724 4.64116C7.55525 4.64116 9.51544 3.63248 9.51544 2.38821C9.51544 1.14394 7.55525 0.135254 5.13724 0.135254C2.71922 0.135254 0.759033 1.14394 0.759033 2.38821C0.759033 3.63248 2.71922 4.64116 5.13724 4.64116Z" fill="black" fill-opacity="0.4"/>
<path fill-rule="evenodd" clip-rule="evenodd" d="M5.27621 5.93733C2.14575 5.93733 0.89801 4.74862 0.89801 4.06006V7.00957C0.89801 8.25423 2.85858 9.26138 5.27621 9.26138C7.69607 9.26138 9.65553 8.25423 9.65553 7.00957V4.13086C9.65553 4.82056 8.40668 5.93733 5.27621 5.93733Z" fill="black" fill-opacity="0.4"/>
<path fill-rule="evenodd" clip-rule="evenodd" d="M5.27621 10.4944C2.47492 10.4944 0.89801 9.3514 0.89801 8.66284V11.5849C0.89801 12.8296 2.85858 13.8379 5.27621 13.8379C7.69607 13.8379 9.65553 12.8296 9.65553 11.5849V8.62744C9.65553 9.316 8.07639 10.4944 5.27621 10.4944Z" fill="black" fill-opacity="0.4"/>
<path fill-rule="evenodd" clip-rule="evenodd" d="M5.27621 15.0621C2.47492 15.0621 0.89801 13.919 0.89801 13.2305V16.1526C0.89801 17.3972 2.85858 18.4055 5.27621 18.4055C7.69607 18.4055 9.65553 17.3972 9.65553 16.1526V13.1951C9.65553 13.8836 8.07639 15.0621 5.27621 15.0621Z" fill="black" fill-opacity="0.4"/>
</svg>
