<svg width="44" height="45" viewBox="0 0 44 45" fill="none" xmlns="http://www.w3.org/2000/svg">
<path d="M34.0839 22.2957C39.3252 22.2957 43.5742 19.8171 43.5742 16.7597C43.5742 13.7022 39.3252 11.2236 34.0839 11.2236C28.8425 11.2236 24.5935 13.7022 24.5935 16.7597C24.5935 19.8171 28.8425 22.2957 34.0839 22.2957Z" fill="#EF2F74"/>
<path fill-rule="evenodd" clip-rule="evenodd" d="M34.2259 25.4802C27.4381 25.4802 24.7356 22.5593 24.7356 20.8673V28.1149C24.7356 31.1734 28.9848 33.6482 34.2259 33.6482C39.4726 33.6482 43.7218 31.1734 43.7218 28.1149V21.0413C43.7218 22.736 41.0165 25.4802 34.2259 25.4802Z" fill="#EF2F74"/>
<path fill-rule="evenodd" clip-rule="evenodd" d="M34.2259 36.6786C28.1541 36.6786 24.7356 33.8699 24.7356 32.1779V39.3582C24.7356 42.4167 28.9848 44.8943 34.2259 44.8943C39.4726 44.8943 43.7218 42.4167 43.7218 39.3582V32.0909C43.7218 33.7829 40.3005 36.6786 34.2259 36.6786Z" fill="#EF2F74"/>
<path d="M10.7583 11.0721C16.6999 11.0721 21.5166 8.59351 21.5166 5.53604C21.5166 2.47857 16.6999 0 10.7583 0C4.81665 0 0 2.47857 0 5.53604C0 8.59351 4.81665 11.0721 10.7583 11.0721Z" fill="#EF2F74"/>
<path fill-rule="evenodd" clip-rule="evenodd" d="M11.0996 14.2569C3.40729 14.2569 0.341309 11.336 0.341309 9.64404V16.8917C0.341309 19.9501 5.1589 22.4249 11.0996 22.4249C17.0457 22.4249 21.8606 19.9501 21.8606 16.8917V9.81801C21.8606 11.5128 18.7919 14.2569 11.0996 14.2569Z" fill="#EF2F74"/>
<path fill-rule="evenodd" clip-rule="evenodd" d="M11.0996 25.455C4.21615 25.455 0.341309 22.6462 0.341309 20.9543V28.1346C0.341309 31.193 5.1589 33.6706 11.0996 33.6706C17.0457 33.6706 21.8606 31.193 21.8606 28.1346V20.8673C21.8606 22.5593 17.9803 25.455 11.0996 25.455Z" fill="#EF2F74"/>
<path fill-rule="evenodd" clip-rule="evenodd" d="M11.0996 36.6786C4.21615 36.6786 0.341309 33.8699 0.341309 32.1779V39.3582C0.341309 42.4167 5.1589 44.8943 11.0996 44.8943C17.0457 44.8943 21.8606 42.4167 21.8606 39.3582V32.0909C21.8606 33.7829 17.9803 36.6786 11.0996 36.6786Z" fill="#EF2F74"/>
</svg>
