<svg width="51" height="52" viewBox="0 0 51 52" fill="none" xmlns="http://www.w3.org/2000/svg">
<path d="M39.4785 25.8245C45.5495 25.8245 50.471 22.9537 50.471 19.4123C50.471 15.8709 45.5495 13 39.4785 13C33.4076 13 28.4861 15.8709 28.4861 19.4123C28.4861 22.9537 33.4076 25.8245 39.4785 25.8245Z" fill="#C4C4C4"/>
<path fill-rule="evenodd" clip-rule="evenodd" d="M39.6431 29.5132C31.7809 29.5132 28.6506 26.1299 28.6506 24.1702V32.5649C28.6506 36.1075 33.5724 38.974 39.6431 38.974C45.7201 38.974 50.6419 36.1075 50.6419 32.5649V24.3717C50.6419 26.3347 47.5084 29.5132 39.6431 29.5132Z" fill="#C4C4C4"/>
<path fill-rule="evenodd" clip-rule="evenodd" d="M39.6431 42.4839C32.6102 42.4839 28.6506 39.2307 28.6506 37.2709V45.5877C28.6506 49.1302 33.5724 52 39.6431 52C45.7201 52 50.6419 49.1302 50.6419 45.5877V37.1702C50.6419 39.1299 46.6791 42.4839 39.6431 42.4839Z" fill="#C4C4C4"/>
<path d="M12.4611 12.8245C19.3431 12.8245 24.9221 9.95367 24.9221 6.41227C24.9221 2.87087 19.3431 0 12.4611 0C5.57901 0 0 2.87087 0 6.41227C0 9.95367 5.57901 12.8245 12.4611 12.8245Z" fill="#C4C4C4"/>
<path fill-rule="evenodd" clip-rule="evenodd" d="M12.8566 16.5134C3.94677 16.5134 0.395508 13.1302 0.395508 11.1704V19.5652C0.395508 23.1077 5.97561 25.9742 12.8566 25.9742C19.7439 25.9742 25.3208 23.1077 25.3208 19.5652V11.3719C25.3208 13.3349 21.7664 16.5134 12.8566 16.5134Z" fill="#C4C4C4"/>
<path fill-rule="evenodd" clip-rule="evenodd" d="M12.8566 29.4839C4.88365 29.4839 0.395508 26.2307 0.395508 24.2709V32.5877C0.395508 36.1302 5.97561 39 12.8566 39C19.7439 39 25.3208 36.1302 25.3208 32.5877V24.1702C25.3208 26.1299 20.8263 29.4839 12.8566 29.4839Z" fill="#C4C4C4"/>
<path fill-rule="evenodd" clip-rule="evenodd" d="M12.8566 42.4839C4.88365 42.4839 0.395508 39.2307 0.395508 37.2709V45.5877C0.395508 49.1302 5.97561 52 12.8566 52C19.7439 52 25.3208 49.1302 25.3208 45.5877V37.1702C25.3208 39.1299 20.8263 42.4839 12.8566 42.4839Z" fill="#C4C4C4"/>
</svg>
