<svg width="21" height="23" viewBox="0 0 21 23" fill="none" xmlns="http://www.w3.org/2000/svg">
<path d="M17.8889 10.45H3.11111C1.94518 10.45 1 11.3902 1 12.55V19.9C1 21.0597 1.94518 22 3.11111 22H17.8889C19.0548 22 20 21.0597 20 19.9V12.55C20 11.3902 19.0548 10.45 17.8889 10.45Z" stroke="#979797" stroke-width="2" stroke-linecap="round" stroke-linejoin="round"/>
<path d="M5.22217 10.45V6.25C5.22217 4.85761 5.77822 3.52226 6.76799 2.53769C7.75777 1.55312 9.10019 1 10.4999 1C11.8997 1 13.2421 1.55312 14.2319 2.53769C15.2217 3.52226 15.7777 4.85761 15.7777 6.25V10.45" stroke="#979797" stroke-width="2" stroke-linecap="round" stroke-linejoin="round"/>
</svg>
