<svg width="55" height="37" viewBox="0 0 55 37" fill="none" xmlns="http://www.w3.org/2000/svg">
<path d="M34.6524 8.82853C33.1401 8.24719 31.5757 7.8244 29.9591 7.56016C28.3425 7.29591 26.6216 7.29591 24.7964 7.56016C22.2411 7.87725 19.8945 8.64355 17.7564 9.85908C15.6183 11.0746 13.7671 12.6072 12.2026 14.4569C10.6382 16.3066 9.4388 18.4206 8.60443 20.7988C7.77006 23.177 7.3268 25.6609 7.27466 28.2504V29.4395C7.27466 29.968 7.09214 30.3908 6.7271 30.7079C6.36206 31.025 5.91881 31.21 5.39733 31.2628H1.79911C1.27763 31.2628 0.860443 31.0779 0.547555 30.7079C0.234666 30.338 0.0521481 29.9152 0 29.4395V28.3297C0 24.8417 0.599703 21.4858 1.79911 18.262C2.99851 15.0383 4.64118 12.1844 6.7271 9.70053C8.81302 7.21664 11.3161 5.12911 14.2364 3.43795C17.1567 1.74679 20.3117 0.689815 23.7013 0.267025C26.7259 -0.155765 29.6462 -0.0764916 32.4622 0.504845C35.2782 1.08618 37.8856 2.06388 40.2844 3.43795C40.5451 3.64935 40.7016 3.91359 40.7537 4.23068C40.8059 4.54778 40.6755 4.81202 40.3626 5.02341C39.6325 5.60475 38.7721 6.26536 37.7813 7.00524C36.7905 7.74513 36.0343 8.32646 35.5128 8.74925C35.1999 8.96065 34.9131 8.98707 34.6524 8.82853ZM51.7048 15.8838C53.4778 19.5833 54.3644 23.4941 54.3644 27.6163V29.4395C54.3644 29.968 54.1818 30.3908 53.8168 30.7079C53.4518 31.025 53.0085 31.21 52.487 31.2628H48.967C48.4456 31.2628 48.0023 31.0779 47.6373 30.7079C47.2722 30.338 47.0897 29.9152 47.0897 29.4395V27.6163C47.0897 25.6609 46.8029 23.679 46.2293 21.6708C46.125 21.3008 46.1771 21.0102 46.3857 20.7988L50.2186 15.7253C50.4272 15.461 50.714 15.3289 51.079 15.3289C51.4441 15.3289 51.6527 15.5139 51.7048 15.8838ZM44.8995 10.8104C45.3167 10.4933 45.7339 10.3611 46.151 10.414C46.5682 10.4668 46.9333 10.6254 47.2462 10.8896C47.559 11.1539 47.7416 11.5238 47.7937 11.9995C47.8459 12.4751 47.7155 12.9243 47.4026 13.3471L31.5235 34.5923L31.2888 34.8301L31.0542 35.1472C29.9591 36.2042 28.6554 36.7327 27.1431 36.7327C25.6308 36.7327 24.3531 36.2042 23.3102 35.1472C22.2672 34.0902 21.7457 32.7954 21.7457 31.2628C21.7457 29.7302 22.2672 28.4354 23.3102 27.3784C23.4145 27.2727 23.5188 27.1935 23.6231 27.1406C23.7274 27.0878 23.8317 27.0085 23.936 26.9028L44.8995 10.8104Z" fill="#ED1260"/>
</svg>
