<svg width="22" height="15" viewBox="0 0 22 15" fill="none" xmlns="http://www.w3.org/2000/svg">
<path d="M14.023 3.60518C13.411 3.36779 12.7779 3.19514 12.1237 3.08723C11.4695 2.97933 10.7731 2.97933 10.0345 3.08723C9.00048 3.21672 8.05084 3.52965 7.18561 4.02601C6.32038 4.52238 5.57122 5.14823 4.93813 5.90357C4.30504 6.65891 3.81966 7.52215 3.48201 8.4933C3.14436 9.46445 2.96499 10.4788 2.94389 11.5362V12.0218C2.94389 12.2376 2.87002 12.4103 2.7223 12.5398C2.57458 12.6692 2.3952 12.7448 2.18417 12.7664H0.728058C0.517026 12.7664 0.348201 12.6908 0.221583 12.5398C0.094964 12.3887 0.0211031 12.216 0 12.0218V11.5686C0 10.1443 0.242686 8.77385 0.728058 7.45741C1.21343 6.14096 1.87818 4.97558 2.7223 3.96127C3.56643 2.94696 4.57938 2.0945 5.76115 1.40391C6.94293 0.713312 8.21966 0.28169 9.59137 0.109041C10.8153 -0.0636075 11.9971 -0.0312358 13.1367 0.206156C14.2763 0.443548 15.3314 0.842799 16.3022 1.40391C16.4077 1.49023 16.471 1.59814 16.4921 1.72762C16.5132 1.85711 16.4604 1.96502 16.3338 2.05134C16.0384 2.28873 15.6902 2.5585 15.2892 2.86063C14.8882 3.16277 14.5823 3.40016 14.3712 3.57281C14.2446 3.65913 14.1285 3.66992 14.023 3.60518ZM20.9237 6.48626C21.6412 7.99693 22 9.59393 22 11.2773V12.0218C22 12.2376 21.9261 12.4103 21.7784 12.5398C21.6307 12.6692 21.4513 12.7448 21.2403 12.7664H19.8158C19.6048 12.7664 19.4254 12.6908 19.2777 12.5398C19.13 12.3887 19.0561 12.216 19.0561 12.0218V11.2773C19.0561 10.4788 18.94 9.66947 18.7079 8.84939C18.6657 8.69832 18.6868 8.57962 18.7712 8.4933L20.3223 6.42151C20.4067 6.31361 20.5228 6.25965 20.6705 6.25965C20.8182 6.25965 20.9026 6.33519 20.9237 6.48626ZM18.1698 4.41447C18.3386 4.28498 18.5074 4.23103 18.6763 4.25261C18.8451 4.27419 18.9928 4.33894 19.1194 4.44684C19.246 4.55475 19.3199 4.70582 19.341 4.90005C19.3621 5.09428 19.3094 5.27771 19.1827 5.45036L12.7568 14.126L12.6619 14.2231L12.5669 14.3526C12.1237 14.7842 11.5962 15 10.9842 15C10.3722 15 9.85516 14.7842 9.43309 14.3526C9.01103 13.9209 8.8 13.3922 8.8 12.7664C8.8 12.1405 9.01103 11.6118 9.43309 11.1801C9.4753 11.137 9.51751 11.1046 9.55971 11.083C9.60192 11.0614 9.64412 11.0291 9.68633 10.9859L18.1698 4.41447Z" fill="black" fill-opacity="0.4"/>
</svg>
