<svg width="22" height="16" viewBox="0 0 22 16" fill="none" xmlns="http://www.w3.org/2000/svg">
<path d="M15.95 8C17.468 8 18.689 6.72 18.689 5.14286C18.689 3.56571 17.468 2.28571 15.95 2.28571C14.432 2.28571 13.2 3.56571 13.2 5.14286C13.2 6.72 14.432 8 15.95 8ZM7.7 6.85714C9.526 6.85714 10.989 5.32571 10.989 3.42857C10.989 1.53143 9.526 0 7.7 0C5.874 0 4.4 1.53143 4.4 3.42857C4.4 5.32571 5.874 6.85714 7.7 6.85714ZM15.95 10.2857C13.937 10.2857 9.9 11.3371 9.9 13.4286V16H22V13.4286C22 11.3371 17.963 10.2857 15.95 10.2857ZM7.7 9.14286C5.137 9.14286 0 10.48 0 13.1429V16H7.7V13.4286C7.7 12.4571 8.063 10.7543 10.307 9.46286C9.35 9.25714 8.426 9.14286 7.7 9.14286Z" fill="black" fill-opacity="0.6"/>
</svg>
