<svg width="20" height="16" viewBox="0 0 20 16" fill="none" xmlns="http://www.w3.org/2000/svg">
<path d="M1.44531 1.77588V6.44219M1.44531 6.44219H6.11163M1.44531 6.44219L5.05393 3.05134C5.88978 2.21507 6.92386 1.60416 8.05967 1.27563C9.19548 0.947096 10.396 0.91164 11.5492 1.17257C12.7024 1.4335 13.7708 1.98231 14.6545 2.7678C15.5383 3.55328 16.2086 4.54984 16.6031 5.66448M18.555 14.2193V9.55298M18.555 9.55298H13.8887M18.555 9.55298L14.9465 12.9439C14.1107 13.7802 13.0766 14.3911 11.9408 14.7196C10.805 15.0482 9.60445 15.0836 8.45123 14.8227C7.29801 14.5618 6.22969 14.013 5.34594 13.2275C4.46219 12.442 3.79182 11.4454 3.39739 10.3308" stroke="#EF2F74" stroke-width="1.55544" stroke-linecap="round" stroke-linejoin="round"/>
</svg>
