<svg width="20" height="20" viewBox="0 0 20 20" fill="none" xmlns="http://www.w3.org/2000/svg">
<path d="M9.67909 12.099C11.0155 12.099 12.0989 11.0156 12.0989 9.67921C12.0989 8.34279 11.0155 7.2594 9.67909 7.2594C8.34266 7.2594 7.25928 8.34279 7.25928 9.67921C7.25928 11.0156 8.34266 12.099 9.67909 12.099Z" stroke="#D8D8D8" stroke-width="1.61321" stroke-linecap="round" stroke-linejoin="round"/>
<path d="M15.6481 12.0991C15.5408 12.3424 15.5087 12.6122 15.5562 12.8739C15.6036 13.1356 15.7284 13.377 15.9143 13.5671L15.9627 13.6155C16.1127 13.7653 16.2317 13.9432 16.3129 14.1391C16.3941 14.3349 16.4359 14.5448 16.4359 14.7568C16.4359 14.9688 16.3941 15.1788 16.3129 15.3746C16.2317 15.5704 16.1127 15.7484 15.9627 15.8982C15.8129 16.0482 15.635 16.1672 15.4391 16.2484C15.2433 16.3295 15.0334 16.3713 14.8214 16.3713C14.6094 16.3713 14.3995 16.3295 14.2036 16.2484C14.0078 16.1672 13.8299 16.0482 13.68 15.8982L13.6316 15.8498C13.4415 15.6638 13.2001 15.5391 12.9384 15.4917C12.6768 15.4442 12.4069 15.4762 12.1636 15.5836C11.925 15.6859 11.7216 15.8556 11.5783 16.072C11.435 16.2884 11.358 16.542 11.357 16.8016V16.9387C11.357 17.3666 11.1871 17.7769 10.8845 18.0794C10.582 18.382 10.1717 18.5519 9.74381 18.5519C9.31596 18.5519 8.90563 18.382 8.6031 18.0794C8.30056 17.7769 8.1306 17.3666 8.1306 16.9387V16.8661C8.12435 16.5991 8.03794 16.3402 7.88258 16.123C7.72722 15.9058 7.51011 15.7403 7.25947 15.6481C7.01618 15.5408 6.74631 15.5087 6.48465 15.5562C6.223 15.6036 5.98155 15.7284 5.79145 15.9143L5.74305 15.9627C5.59323 16.1127 5.41531 16.2317 5.21947 16.3129C5.02363 16.3941 4.81371 16.4359 4.60171 16.4359C4.38971 16.4359 4.17979 16.3941 3.98395 16.3129C3.78811 16.2317 3.61019 16.1127 3.46037 15.9627C3.31038 15.8129 3.19139 15.635 3.1102 15.4391C3.02902 15.2433 2.98723 15.0334 2.98723 14.8214C2.98723 14.6094 3.02902 14.3995 3.1102 14.2036C3.19139 14.0078 3.31038 13.8299 3.46037 13.68L3.50876 13.6316C3.69471 13.4415 3.81945 13.2001 3.8669 12.9384C3.91434 12.6768 3.88231 12.4069 3.77494 12.1636C3.67269 11.925 3.50292 11.7216 3.28651 11.5783C3.07011 11.435 2.81652 11.358 2.55697 11.357H2.41985C1.992 11.357 1.58167 11.1871 1.27914 10.8845C0.976603 10.582 0.806641 10.1717 0.806641 9.74381C0.806641 9.31596 0.976603 8.90563 1.27914 8.6031C1.58167 8.30056 1.992 8.1306 2.41985 8.1306H2.49244C2.75942 8.12435 3.01835 8.03794 3.23556 7.88258C3.45278 7.72722 3.61823 7.51011 3.71041 7.25947C3.81778 7.01618 3.84981 6.74631 3.80237 6.48465C3.75493 6.223 3.63019 5.98155 3.44423 5.79145L3.39584 5.74305C3.24585 5.59323 3.12686 5.41531 3.04568 5.21947C2.96449 5.02363 2.92271 4.81371 2.92271 4.60171C2.92271 4.38971 2.96449 4.17979 3.04568 3.98395C3.12686 3.78811 3.24585 3.61019 3.39584 3.46037C3.54566 3.31038 3.72358 3.19139 3.91942 3.1102C4.11526 3.02902 4.32518 2.98723 4.53718 2.98723C4.74918 2.98723 4.9591 3.02902 5.15494 3.1102C5.35078 3.19139 5.5287 3.31038 5.67853 3.46037L5.72692 3.50876C5.91702 3.69471 6.15847 3.81945 6.42013 3.8669C6.68178 3.91434 6.95166 3.88231 7.19494 3.77494H7.25947C7.49804 3.67269 7.7015 3.50292 7.84481 3.28651C7.98813 3.07011 8.06504 2.81652 8.06607 2.55697V2.41985C8.06607 1.992 8.23603 1.58167 8.53857 1.27914C8.8411 0.976603 9.25143 0.806641 9.67928 0.806641C10.1071 0.806641 10.5175 0.976603 10.82 1.27914C11.1225 1.58167 11.2925 1.992 11.2925 2.41985V2.49244C11.2935 2.752 11.3704 3.00558 11.5137 3.22199C11.6571 3.43839 11.8605 3.60817 12.0991 3.71041C12.3424 3.81778 12.6122 3.84981 12.8739 3.80237C13.1356 3.75493 13.377 3.63019 13.5671 3.44423L13.6155 3.39584C13.7653 3.24585 13.9432 3.12686 14.1391 3.04568C14.3349 2.96449 14.5448 2.92271 14.7568 2.92271C14.9688 2.92271 15.1788 2.96449 15.3746 3.04568C15.5704 3.12686 15.7484 3.24585 15.8982 3.39584C16.0482 3.54566 16.1672 3.72358 16.2484 3.91942C16.3295 4.11526 16.3713 4.32518 16.3713 4.53718C16.3713 4.74918 16.3295 4.9591 16.2484 5.15494C16.1672 5.35078 16.0482 5.5287 15.8982 5.67853L15.8498 5.72692C15.6638 5.91702 15.5391 6.15847 15.4917 6.42013C15.4442 6.68178 15.4762 6.95166 15.5836 7.19494V7.25947C15.6859 7.49804 15.8556 7.7015 16.072 7.84481C16.2884 7.98813 16.542 8.06504 16.8016 8.06607H16.9387C17.3666 8.06607 17.7769 8.23603 18.0794 8.53857C18.382 8.8411 18.5519 9.25143 18.5519 9.67928C18.5519 10.1071 18.382 10.5175 18.0794 10.82C17.7769 11.1225 17.3666 11.2925 16.9387 11.2925H16.8661C16.6066 11.2935 16.353 11.3704 16.1366 11.5137C15.9202 11.6571 15.7504 11.8605 15.6481 12.0991V12.0991Z" stroke="#D8D8D8" stroke-width="1.61321" stroke-linecap="round" stroke-linejoin="round"/>
</svg>
