<svg width="11" height="9" viewBox="0 0 11 9" fill="none" xmlns="http://www.w3.org/2000/svg">
<path d="M0.50718 1.64007L2.0777 0.118859C2.20039 7.47815e-05 2.39939 0.000112817 2.52199 0.118859L4.09246 1.64007C4.29019 1.83155 4.14938 2.15943 3.8703 2.15943H2.92819V8.24412C2.92819 8.41215 2.78754 8.54835 2.61403 8.54835H1.98569C1.81217 8.54835 1.67152 8.41215 1.67152 8.24412V2.15943H0.729336C0.449707 2.15943 0.309864 1.83117 0.50718 1.64007ZM5.12737 1.24673H10.154C10.3276 1.24673 10.4682 1.11053 10.4682 0.942497V0.334029C10.4682 0.165997 10.3276 0.0297947 10.154 0.0297947H5.12737C4.95385 0.0297947 4.8132 0.165997 4.8132 0.334029V0.942497C4.8132 1.11053 4.95385 1.24673 5.12737 1.24673ZM4.8132 3.37637V2.7679C4.8132 2.59987 4.95385 2.46367 5.12737 2.46367H8.89737C9.07089 2.46367 9.21154 2.59987 9.21154 2.7679V3.37637C9.21154 3.5444 9.07089 3.68061 8.89737 3.68061H5.12737C4.95385 3.68061 4.8132 3.5444 4.8132 3.37637ZM4.8132 8.24412V7.63565C4.8132 7.46762 4.95385 7.33142 5.12737 7.33142H6.38403C6.55755 7.33142 6.6982 7.46762 6.6982 7.63565V8.24412C6.6982 8.41215 6.55755 8.54835 6.38403 8.54835H5.12737C4.95385 8.54835 4.8132 8.41215 4.8132 8.24412ZM4.8132 5.81024V5.20178C4.8132 5.03374 4.95385 4.89754 5.12737 4.89754H7.6407C7.81422 4.89754 7.95487 5.03374 7.95487 5.20178V5.81024C7.95487 5.97828 7.81422 6.11448 7.6407 6.11448H5.12737C4.95385 6.11448 4.8132 5.97828 4.8132 5.81024Z" fill="#C5C7CD"/>
</svg>
