<svg width="44" height="44" viewBox="0 0 44 44" fill="none" xmlns="http://www.w3.org/2000/svg">
<path d="M37.4098 6.39375C33.2946 2.26875 27.8143 0 21.9902 0C9.96875 0 0.186607 9.78214 0.186607 21.8036C0.186607 25.6437 1.18839 29.3955 3.09375 32.7054L0 44L11.5598 40.9652C14.742 42.7036 18.3268 43.617 21.9804 43.617H21.9902C34.0018 43.617 44 33.8348 44 21.8134C44 15.9893 41.525 10.5187 37.4098 6.39375ZM21.9902 39.9438C18.7295 39.9438 15.5375 39.0696 12.758 37.4196L12.1 37.0268L5.24464 38.8241L7.07143 32.1357L6.63929 31.4482C4.82232 28.5607 3.86964 25.2313 3.86964 21.8036C3.86964 11.8152 12.0018 3.68304 22 3.68304C26.842 3.68304 31.3893 5.56875 34.8071 8.99643C38.225 12.4241 40.3268 16.9714 40.317 21.8134C40.317 31.8116 31.9786 39.9438 21.9902 39.9438ZM31.9295 26.3705C31.3893 26.0955 28.708 24.7795 28.2071 24.6027C27.7063 24.4161 27.3429 24.3277 26.9795 24.8777C26.6161 25.4277 25.575 26.6455 25.2509 27.0188C24.9366 27.3821 24.6125 27.4312 24.0723 27.1562C20.8705 25.5554 18.7688 24.2982 16.6571 20.6741C16.0973 19.7116 17.217 19.7804 18.258 17.6982C18.4348 17.3348 18.3464 17.0205 18.2089 16.7455C18.0714 16.4705 16.9812 13.7893 16.5295 12.6991C16.0875 11.6384 15.6357 11.7857 15.3018 11.7661C14.9875 11.7464 14.6241 11.7464 14.2607 11.7464C13.8973 11.7464 13.308 11.8839 12.8071 12.4241C12.3062 12.9741 10.9018 14.2902 10.9018 16.9714C10.9018 19.6527 12.8563 22.2455 13.1214 22.6089C13.3964 22.9723 16.9616 28.4723 22.4321 30.8393C25.8893 32.3321 27.2446 32.4598 28.9732 32.2045C30.0241 32.0473 32.1946 30.8884 32.6464 29.6116C33.0982 28.3348 33.0982 27.2446 32.9607 27.0188C32.833 26.7732 32.4696 26.6357 31.9295 26.3705Z" fill="#ED1260"/>
</svg>
